<svg width="24.000000" height="24.000000" viewBox="0 0 24 24" fill="none" xmlns="http://www.w3.org/2000/svg" xmlns:xlink="http://www.w3.org/1999/xlink">
	<desc>
			Created with Pixso.
	</desc>
	<defs/>
	<path id="Rectangle 137" d="M0 0L24 0L24 24L0 24L0 0Z" fill="#C4C4C4" fill-opacity="0" fill-rule="nonzero"/>
	<path id="Rectangle 138" d="M5.5 5.92L19.75 5.92C20.39 5.92 20.86 6.51 20.73 7.13L19.69 11.86C19.28 13.69 17.66 15 15.78 15L9.54 15C8.07 15 6.82 13.93 6.58 12.48L5.5 5.92L4.96 4.35C4.68 3.54 3.92 3 3.07 3L3 3" stroke="#311F09" stroke-opacity="1.000000" stroke-width="1.500000" stroke-linecap="round"/>
	<path id="Vector 42" d="M10 15L7.5 15C6.67 15 6 15.67 6 16.5C6 17.32 6.67 18 7.5 18L18 18" stroke="#311F09" stroke-opacity="1.000000" stroke-width="1.500000" stroke-linecap="round"/>
	<circle id="Ellipse 77" cx="8.000000" cy="20.000000" r="1.250000" stroke="#311F09" stroke-opacity="1.000000" stroke-width="1.500000"/>
	<circle id="Ellipse 78" cx="16.000000" cy="20.000000" r="1.250000" stroke="#311F09" stroke-opacity="1.000000" stroke-width="1.500000"/>
</svg>
