<svg width="55.000000" height="55.000000" viewBox="0 0 55 55" fill="none" xmlns="http://www.w3.org/2000/svg" xmlns:xlink="http://www.w3.org/1999/xlink">
	<desc>
			Created with Pixso.
	</desc>
	<defs/>
	<rect id="Rectangle 7" rx="15.000000" width="55.000000" height="55.000000" transform="matrix(-1 0 0 1 55 0)" fill="#311F09" fill-opacity="1.000000"/>
	<path id="Rectangle 8" d="M30.76 15.97L19.24 27.5L30.76 39.02L31.82 37.96L20.83 26.96L20.3 27.5L20.83 28.03L31.82 17.03L30.76 15.97ZM31.79 17.03L31.82 17.03C32.12 16.74 32.12 16.27 31.82 15.97C31.52 15.68 31.05 15.68 30.76 15.97L30.76 16L31.79 17.03ZM30.76 38.99L30.76 39.02C31.05 39.31 31.52 39.31 31.82 39.02C32.12 38.72 32.12 38.25 31.82 37.96L31.79 37.96L30.76 38.99Z" fill="#FFFFFF" fill-opacity="1.000000" fill-rule="evenodd"/>
</svg>
