<svg width="33.515625" height="24.179688" viewBox="0 0 33.5156 24.1797" fill="none" xmlns="http://www.w3.org/2000/svg" xmlns:xlink="http://www.w3.org/1999/xlink">
	<desc>
			Created with Pixso.
	</desc>
	<defs/>
	<path id="“" d="M1.28 10.38Q0 13.22 0 16.64Q0 18.67 0.83 20.25Q1.35 21.23 2.18 22.05Q2.96 22.8 3.87 23.28Q5.54 24.17 7.69 24.17Q10.46 24.17 12.18 22.83Q12.23 22.79 12.28 22.75Q13.01 22.15 13.44 21.38Q14.02 20.32 14.02 18.94Q14.02 17.47 13.4 16.34Q12.66 14.97 11.01 14.1Q9.21 13.16 8.61 12.55Q8.36 12.3 8.21 12Q8 11.57 8 11.05Q8 9.68 9 8.18Q10 6.67 11.73 5.5Q13.47 4.33 15.93 3.59L15.93 0Q8.04 2.1 4.02 6.34Q2.27 8.19 1.28 10.38ZM18.85 10.38Q17.57 13.22 17.57 16.64Q17.57 18.67 18.41 20.25Q18.93 21.23 19.76 22.05Q20.53 22.8 21.45 23.28Q23.12 24.17 25.27 24.17Q28.03 24.17 29.75 22.83Q29.81 22.79 29.86 22.75Q30.59 22.15 31.01 21.38Q31.6 20.32 31.6 18.94Q31.6 17.47 30.98 16.34Q30.23 14.97 28.59 14.1Q26.79 13.16 26.19 12.55Q25.93 12.3 25.79 12Q25.58 11.57 25.58 11.05Q25.58 9.68 26.58 8.18Q27.57 6.67 29.31 5.5Q31.05 4.33 33.51 3.59L33.51 0Q25.62 2.1 21.6 6.34Q19.84 8.19 18.85 10.38Z" fill="#311F09" fill-opacity="1.000000" fill-rule="evenodd"/>
</svg>
