<svg width="33.515625" height="24.179688" viewBox="0 0 33.5156 24.1797" fill="none" xmlns="http://www.w3.org/2000/svg" xmlns:xlink="http://www.w3.org/1999/xlink">
	<desc>
			Created with Pixso.
	</desc>
	<defs/>
	<path id="“" d="M32.23 13.79Q33.51 10.95 33.51 7.53Q33.51 5.5 32.67 3.92Q32.16 2.94 31.32 2.12Q30.55 1.37 29.64 0.89Q27.96 0 25.82 0Q23.05 0 21.33 1.34Q21.28 1.38 21.23 1.42Q20.49 2.02 20.07 2.79Q19.49 3.85 19.49 5.23Q19.49 6.7 20.1 7.83Q20.85 9.2 22.5 10.07Q24.29 11.01 24.9 11.62Q25.15 11.87 25.3 12.17Q25.5 12.6 25.5 13.12Q25.5 14.49 24.51 15.99Q23.51 17.5 21.77 18.67Q20.03 19.84 17.57 20.58L17.57 24.17Q25.46 22.07 29.49 17.83Q31.24 15.98 32.23 13.79ZM14.65 13.79Q15.93 10.95 15.93 7.53Q15.93 5.5 15.1 3.92Q14.58 2.94 13.75 2.12Q12.97 1.37 12.06 0.89Q10.38 0 8.24 0Q5.47 0 3.75 1.34Q3.7 1.38 3.65 1.42Q2.92 2.02 2.49 2.79Q1.91 3.85 1.91 5.23Q1.91 6.7 2.53 7.83Q3.27 9.2 4.92 10.07Q6.71 11.01 7.32 11.62Q7.57 11.87 7.72 12.17Q7.92 12.6 7.92 13.12Q7.92 14.49 6.93 15.99Q5.93 17.5 4.19 18.67Q2.46 19.84 3.81e-6 20.58L3.81e-6 24.17Q7.89 22.07 11.91 17.83Q13.66 15.98 14.65 13.79Z" fill="#311F09" fill-opacity="1.000000" fill-rule="evenodd"/>
</svg>
