<svg width="55.000000" height="55.000000" viewBox="0 0 55 55" fill="none" xmlns="http://www.w3.org/2000/svg" xmlns:xlink="http://www.w3.org/1999/xlink">
	<desc>
			Created with Pixso.
	</desc>
	<defs/>
	<rect id="Rectangle 7" rx="15.000000" width="55.000000" height="55.000000" fill="#311F09" fill-opacity="1.000000"/>
	<path id="Rectangle 8" d="M24.23 15.97L35.75 27.5L24.23 39.02L23.17 37.96L34.16 26.96L34.69 27.5L34.16 28.03L23.17 17.03L24.23 15.97ZM23.2 17.03L23.17 17.03C22.87 16.74 22.87 16.27 23.17 15.97C23.47 15.68 23.94 15.68 24.23 15.97L24.23 16L23.2 17.03ZM24.23 38.99L24.23 39.02C23.94 39.31 23.47 39.31 23.17 39.02C22.87 38.72 22.87 38.25 23.17 37.96L23.2 37.96L24.23 38.99Z" fill="#FFFFFF" fill-opacity="1.000000" fill-rule="evenodd"/>
</svg>
