<svg width="16.165283" height="15.548340" viewBox="0 0 16.1653 15.5483" fill="none" xmlns="http://www.w3.org/2000/svg" xmlns:xlink="http://www.w3.org/1999/xlink">
	<desc>
			Created with Pixso.
	</desc>
	<defs/>
	<path id="Star 4" d="M6.4 1.21L5.7 3.36C5.46 4.09 4.79 4.58 4.02 4.58L1.76 4.58C0.05 4.58 -0.66 6.77 0.73 7.77L2.55 9.1C3.17 9.55 3.43 10.35 3.2 11.08L2.5 13.23C1.97 14.85 3.83 16.2 5.21 15.2L7.04 13.87C7.66 13.42 8.5 13.42 9.11 13.87L10.94 15.2C12.33 16.2 14.19 14.85 13.66 13.23L12.96 11.08C12.72 10.35 12.98 9.55 13.6 9.1L15.43 7.77C16.81 6.77 16.1 4.58 14.39 4.58L12.13 4.58C11.37 4.58 10.69 4.09 10.45 3.36L9.76 1.21C9.23 -0.41 6.93 -0.41 6.4 1.21Z" fill="#FF8A00" fill-opacity="1.000000" fill-rule="evenodd"/>
</svg>
